<mxfile host="app.diagrams.net" modified="2020-11-14T11:01:46.505Z" agent="5.0 (Windows)" etag="yRY1Lv3sUk6oS1FXn4Os" version="13.9.8" type="github">
  <diagram id="WA7ZrMzL9qv18jcKqO7b" name="Page-1">
    <mxGraphModel dx="856" dy="473" grid="1" gridSize="10" guides="1" tooltips="1" connect="1" arrows="1" fold="1" page="1" pageScale="1" pageWidth="850" pageHeight="1100" math="0" shadow="0">
      <root>
        <mxCell id="0" />
        <mxCell id="1" parent="0" />
        <mxCell id="k8Dv_c0hJLlSarf924Es-1" value="&lt;font style=&quot;font-size: 24px&quot;&gt;E-commerce Security System&lt;/font&gt;" style="rounded=0;whiteSpace=wrap;html=1;" vertex="1" parent="1">
          <mxGeometry x="280" y="200" width="285" height="240" as="geometry" />
        </mxCell>
        <mxCell id="k8Dv_c0hJLlSarf924Es-2" value="" style="rounded=0;whiteSpace=wrap;html=1;" vertex="1" parent="1">
          <mxGeometry x="395" y="180" width="60" height="30" as="geometry" />
        </mxCell>
        <mxCell id="k8Dv_c0hJLlSarf924Es-4" style="edgeStyle=orthogonalEdgeStyle;rounded=0;orthogonalLoop=1;jettySize=auto;html=1;entryX=0.5;entryY=0;entryDx=0;entryDy=0;" edge="1" parent="1" source="k8Dv_c0hJLlSarf924Es-3" target="k8Dv_c0hJLlSarf924Es-2">
          <mxGeometry relative="1" as="geometry" />
        </mxCell>
        <mxCell id="k8Dv_c0hJLlSarf924Es-3" value="&lt;font style=&quot;font-size: 14px&quot;&gt;E-commerce application&lt;br&gt;&lt;/font&gt;" style="rounded=0;whiteSpace=wrap;html=1;" vertex="1" parent="1">
          <mxGeometry x="365" y="70" width="120" height="60" as="geometry" />
        </mxCell>
        <mxCell id="k8Dv_c0hJLlSarf924Es-5" value="" style="rounded=0;whiteSpace=wrap;html=1;" vertex="1" parent="1">
          <mxGeometry x="270" y="210" width="20" height="40" as="geometry" />
        </mxCell>
        <mxCell id="k8Dv_c0hJLlSarf924Es-6" value="" style="rounded=0;whiteSpace=wrap;html=1;" vertex="1" parent="1">
          <mxGeometry x="270" y="270" width="20" height="40" as="geometry" />
        </mxCell>
        <mxCell id="k8Dv_c0hJLlSarf924Es-7" value="" style="rounded=0;whiteSpace=wrap;html=1;" vertex="1" parent="1">
          <mxGeometry x="270" y="330" width="20" height="40" as="geometry" />
        </mxCell>
        <mxCell id="k8Dv_c0hJLlSarf924Es-9" value="&lt;font style=&quot;font-size: 14px&quot;&gt;Customer&lt;/font&gt;" style="rounded=0;whiteSpace=wrap;html=1;" vertex="1" parent="1">
          <mxGeometry x="120" y="210" width="90" height="40" as="geometry" />
        </mxCell>
        <mxCell id="k8Dv_c0hJLlSarf924Es-10" value="" style="endArrow=classic;startArrow=classic;html=1;exitX=1;exitY=0.5;exitDx=0;exitDy=0;entryX=0;entryY=0.5;entryDx=0;entryDy=0;" edge="1" parent="1" source="k8Dv_c0hJLlSarf924Es-9" target="k8Dv_c0hJLlSarf924Es-5">
          <mxGeometry width="50" height="50" relative="1" as="geometry">
            <mxPoint x="220" y="260" as="sourcePoint" />
            <mxPoint x="270" y="210" as="targetPoint" />
          </mxGeometry>
        </mxCell>
        <mxCell id="k8Dv_c0hJLlSarf924Es-12" value="Warehouse Manager" style="rounded=0;whiteSpace=wrap;html=1;" vertex="1" parent="1">
          <mxGeometry x="120" y="270" width="90" height="40" as="geometry" />
        </mxCell>
        <mxCell id="k8Dv_c0hJLlSarf924Es-13" value="" style="endArrow=classic;startArrow=classic;html=1;exitX=1;exitY=0.5;exitDx=0;exitDy=0;entryX=0;entryY=0.5;entryDx=0;entryDy=0;" edge="1" parent="1">
          <mxGeometry width="50" height="50" relative="1" as="geometry">
            <mxPoint x="210" y="289.5" as="sourcePoint" />
            <mxPoint x="270" y="289.5" as="targetPoint" />
          </mxGeometry>
        </mxCell>
        <mxCell id="k8Dv_c0hJLlSarf924Es-14" value="Delivery Personnel" style="rounded=0;whiteSpace=wrap;html=1;" vertex="1" parent="1">
          <mxGeometry x="120" y="330" width="90" height="40" as="geometry" />
        </mxCell>
        <mxCell id="k8Dv_c0hJLlSarf924Es-15" value="" style="endArrow=classic;startArrow=classic;html=1;exitX=1;exitY=0.5;exitDx=0;exitDy=0;entryX=0;entryY=0.5;entryDx=0;entryDy=0;" edge="1" parent="1">
          <mxGeometry width="50" height="50" relative="1" as="geometry">
            <mxPoint x="210" y="349.5" as="sourcePoint" />
            <mxPoint x="270" y="349.5" as="targetPoint" />
          </mxGeometry>
        </mxCell>
        <mxCell id="k8Dv_c0hJLlSarf924Es-28" style="edgeStyle=orthogonalEdgeStyle;rounded=0;orthogonalLoop=1;jettySize=auto;html=1;entryX=0.5;entryY=0;entryDx=0;entryDy=0;" edge="1" parent="1" source="k8Dv_c0hJLlSarf924Es-16" target="k8Dv_c0hJLlSarf924Es-17">
          <mxGeometry relative="1" as="geometry" />
        </mxCell>
        <mxCell id="k8Dv_c0hJLlSarf924Es-16" value="" style="rounded=0;whiteSpace=wrap;html=1;" vertex="1" parent="1">
          <mxGeometry x="320" y="420" width="55" height="30" as="geometry" />
        </mxCell>
        <mxCell id="k8Dv_c0hJLlSarf924Es-17" value="Mobile Banking System" style="rounded=0;whiteSpace=wrap;html=1;" vertex="1" parent="1">
          <mxGeometry x="287.5" y="510" width="120" height="60" as="geometry" />
        </mxCell>
        <mxCell id="k8Dv_c0hJLlSarf924Es-20" value="" style="rounded=0;whiteSpace=wrap;html=1;" vertex="1" parent="1">
          <mxGeometry x="560" y="230" width="20" height="40" as="geometry" />
        </mxCell>
        <mxCell id="k8Dv_c0hJLlSarf924Es-21" value="Video Streaming" style="rounded=0;whiteSpace=wrap;html=1;" vertex="1" parent="1">
          <mxGeometry x="640" y="220" width="120" height="60" as="geometry" />
        </mxCell>
        <mxCell id="k8Dv_c0hJLlSarf924Es-22" value="QR Scanning" style="rounded=0;whiteSpace=wrap;html=1;" vertex="1" parent="1">
          <mxGeometry x="640" y="310" width="120" height="60" as="geometry" />
        </mxCell>
        <mxCell id="k8Dv_c0hJLlSarf924Es-23" value="" style="rounded=0;whiteSpace=wrap;html=1;" vertex="1" parent="1">
          <mxGeometry x="560" y="320" width="20" height="40" as="geometry" />
        </mxCell>
        <mxCell id="k8Dv_c0hJLlSarf924Es-24" value="" style="rounded=0;whiteSpace=wrap;html=1;" vertex="1" parent="1">
          <mxGeometry x="470" y="420" width="55" height="30" as="geometry" />
        </mxCell>
        <mxCell id="k8Dv_c0hJLlSarf924Es-25" value="GPS" style="rounded=0;whiteSpace=wrap;html=1;" vertex="1" parent="1">
          <mxGeometry x="437.5" y="510" width="120" height="60" as="geometry" />
        </mxCell>
        <mxCell id="k8Dv_c0hJLlSarf924Es-29" value="" style="endArrow=classic;startArrow=classic;html=1;entryX=0.5;entryY=1;entryDx=0;entryDy=0;" edge="1" parent="1" source="k8Dv_c0hJLlSarf924Es-25" target="k8Dv_c0hJLlSarf924Es-24">
          <mxGeometry width="50" height="50" relative="1" as="geometry">
            <mxPoint x="490" y="460" as="sourcePoint" />
            <mxPoint x="540" y="410" as="targetPoint" />
          </mxGeometry>
        </mxCell>
        <mxCell id="k8Dv_c0hJLlSarf924Es-30" value="" style="endArrow=classic;startArrow=classic;html=1;exitX=1;exitY=0.5;exitDx=0;exitDy=0;entryX=0;entryY=0.5;entryDx=0;entryDy=0;" edge="1" parent="1" source="k8Dv_c0hJLlSarf924Es-20" target="k8Dv_c0hJLlSarf924Es-21">
          <mxGeometry width="50" height="50" relative="1" as="geometry">
            <mxPoint x="670" y="450" as="sourcePoint" />
            <mxPoint x="720" y="400" as="targetPoint" />
          </mxGeometry>
        </mxCell>
        <mxCell id="k8Dv_c0hJLlSarf924Es-31" value="" style="endArrow=classic;startArrow=classic;html=1;exitX=1;exitY=0.5;exitDx=0;exitDy=0;entryX=0;entryY=0.5;entryDx=0;entryDy=0;" edge="1" parent="1">
          <mxGeometry width="50" height="50" relative="1" as="geometry">
            <mxPoint x="580" y="339.5" as="sourcePoint" />
            <mxPoint x="640" y="339.5" as="targetPoint" />
          </mxGeometry>
        </mxCell>
        <mxCell id="k8Dv_c0hJLlSarf924Es-32" value="Super ordinate system" style="text;html=1;strokeColor=none;fillColor=none;align=center;verticalAlign=middle;whiteSpace=wrap;rounded=0;" vertex="1" parent="1">
          <mxGeometry x="354" y="40" width="142" height="20" as="geometry" />
        </mxCell>
        <mxCell id="k8Dv_c0hJLlSarf924Es-33" value="Sub ordinate system" style="text;html=1;strokeColor=none;fillColor=none;align=center;verticalAlign=middle;whiteSpace=wrap;rounded=0;" vertex="1" parent="1">
          <mxGeometry x="354" y="580" width="142" height="20" as="geometry" />
        </mxCell>
        <mxCell id="k8Dv_c0hJLlSarf924Es-34" value="peers" style="text;html=1;strokeColor=none;fillColor=none;align=center;verticalAlign=middle;whiteSpace=wrap;rounded=0;" vertex="1" parent="1">
          <mxGeometry x="629" y="380" width="142" height="20" as="geometry" />
        </mxCell>
        <mxCell id="k8Dv_c0hJLlSarf924Es-35" value="Actor entities" style="text;html=1;strokeColor=none;fillColor=none;align=center;verticalAlign=middle;whiteSpace=wrap;rounded=0;" vertex="1" parent="1">
          <mxGeometry x="90" y="440" width="142" height="20" as="geometry" />
        </mxCell>
        <mxCell id="k8Dv_c0hJLlSarf924Es-36" value="" style="rounded=0;whiteSpace=wrap;html=1;" vertex="1" parent="1">
          <mxGeometry x="270" y="390" width="20" height="40" as="geometry" />
        </mxCell>
        <mxCell id="k8Dv_c0hJLlSarf924Es-37" value="Admin" style="rounded=0;whiteSpace=wrap;html=1;" vertex="1" parent="1">
          <mxGeometry x="120" y="390" width="90" height="40" as="geometry" />
        </mxCell>
        <mxCell id="k8Dv_c0hJLlSarf924Es-38" value="" style="endArrow=classic;startArrow=classic;html=1;exitX=1;exitY=0.5;exitDx=0;exitDy=0;entryX=0;entryY=0.5;entryDx=0;entryDy=0;" edge="1" parent="1">
          <mxGeometry width="50" height="50" relative="1" as="geometry">
            <mxPoint x="210" y="409.5" as="sourcePoint" />
            <mxPoint x="270" y="409.5" as="targetPoint" />
          </mxGeometry>
        </mxCell>
      </root>
    </mxGraphModel>
  </diagram>
</mxfile>
